<svg width="245" xmlns="http://www.w3.org/2000/svg" height="245" id="screenshot-a77efd26-aaa0-808e-8007-c8a5c18476ca" viewBox="568 906 245 245" style="-webkit-print-color-adjust::exact" xmlns:xlink="http://www.w3.org/1999/xlink" fill="none" version="1.1">
  <g id="shape-a77efd26-aaa0-808e-8007-c8a5c18476ca" rx="0" ry="0">
    <g id="shape-a77efd26-aaa0-808e-8007-c8a0ab9370dd" style="fill:#000000" width="245" height="245" rx="0" ry="0">
      <defs>
        <mask y="-0.1" data-old-width="1.2" width="1.2" data-old-x="-0.1" id="render-283-a" data-old-height="1.2" x="-0.1" data-old-y="-0.1" height="1.2">
          <g class="svg-mask-wrapper" transform="matrix(1.000000, 0.000000, 0.000000, 1.000000, 0.000000, 0.000000)">
            <circle cx="122.5" cy="122.5" r="120" fill="#fff">
            </circle>
          </g>
        </mask>
      </defs>
      <g id="shape-a77efd26-aaa0-808e-8007-c8a0ab940d07" style="display:none">
        <g class="fills" id="fills-a77efd26-aaa0-808e-8007-c8a0ab940d07">
          <rect rx="0" ry="0" x="568" y="906" transform="matrix(1.000000, 0.000000, 0.000000, 1.000000, 0.000000, 0.000000)" width="245" height="245" fill="none" style="fill:none">
          </rect>
        </g>
      </g>
      <g id="shape-a77efd26-aaa0-808e-8007-c8a0ab940d08">
        <defs fill="none" style="fill:#000000">
        </defs>
      </g>
      <g id="shape-a77efd26-aaa0-808e-8007-c8a0ab940d09">
        <g class="fills" id="fills-a77efd26-aaa0-808e-8007-c8a0ab940d09">
          <ellipse cx="690.5" cy="1028.5" rx="120" ry="120" transform="matrix(1.000000, 0.000000, 0.000000, 1.000000, 0.000000, 0.000000)" style="fill:#1e2d28">
          </ellipse>
        </g>
        <g id="strokes-a77efd26-aaa0-808e-8007-c8a5c55d9103-a77efd26-aaa0-808e-8007-c8a0ab940d09" class="strokes">
          <g class="stroke-shape">
            <ellipse cx="690.5" cy="1028.5" rx="120" ry="120" transform="matrix(1.000000, 0.000000, 0.000000, 1.000000, 0.000000, 0.000000)" style="fill:none;fill-opacity:none;stroke-width:2;stroke:#1e2d28;stroke-opacity:1">
            </ellipse>
          </g>
        </g>
      </g>
      <g id="shape-a77efd26-aaa0-808e-8007-c8a0ab945a2a" style="fill:#000000" mask="url(#render-287-a)" rx="0" ry="0">
        <defs>
          <mask y="-0.1" data-old-width="1.2" width="1.2" data-old-x="-0.1" id="render-287-a" data-old-height="1.2" x="-0.1" data-old-y="-0.1" height="1.2">
            <g class="svg-mask-wrapper" transform="matrix(1.000000, 0.000000, 0.000000, 1.000000, 568.000000, 906.000000)">
              <circle cx="122.5" cy="122.5" r="120" fill="#fff">
              </circle>
            </g>
          </mask>
        </defs>
        <g id="shape-a77efd26-aaa0-808e-8007-c8a0ab949f4f" style="opacity:0.4">
          <g class="fills" id="fills-a77efd26-aaa0-808e-8007-c8a0ab949f4f">
            <path d="M583,1106C614.1428833007812,1086,645.2857055664062,1116,686.8095092773438,1096C728.3333129882812,1076,759.4761962890625,1106,801,1086L801,1151L583,1151L583,1106Z" style="fill:#b4c8be">
            </path>
          </g>
        </g>
        <g id="shape-a77efd26-aaa0-808e-8007-c8a0ab94ed67" style="opacity:0.8">
          <g class="fills" id="fills-a77efd26-aaa0-808e-8007-c8a0ab94ed67">
            <path d="M583,1126C623,1116,643,1136,693,1111C743,1086,773,1106,793,1121L793,1151L583,1151L583,1126Z" style="fill:#f7f5f2">
            </path>
          </g>
        </g>
      </g>
    </g>
    <g id="shape-a77efd26-aaa0-808e-8007-c8a28fd63846">
      <g class="fills" id="fills-a77efd26-aaa0-808e-8007-c8a28fd63846">
        <rect rx="0" ry="0" x="658" y="984" transform="matrix(1.000000, 0.000000, 0.000000, 1.000000, 0.000000, 0.000000)" width="72" height="11" style="fill:#ffb38c;fill-opacity:1">
        </rect>
      </g>
    </g>
    <g id="shape-a77efd26-aaa0-808e-8007-c8a2f2721953">
      <g class="fills" id="fills-a77efd26-aaa0-808e-8007-c8a2f2721953">
        <rect rx="0" ry="0" x="658" y="1023" transform="matrix(1.000000, 0.000000, 0.000000, 1.000000, 0.000000, 0.000000)" width="59" height="11" style="fill:#ffb38c;fill-opacity:1">
        </rect>
      </g>
    </g>
    <g id="shape-a77efd26-aaa0-808e-8007-c8a2f4e1be1e">
      <g class="fills" id="fills-a77efd26-aaa0-808e-8007-c8a2f4e1be1e">
        <rect rx="0" ry="0" x="658" y="1062" transform="matrix(1.000000, 0.000000, 0.000000, 1.000000, 0.000000, 0.000000)" width="72" height="11" style="fill:#ffb38c;fill-opacity:1">
        </rect>
      </g>
    </g>
    <g id="shape-a77efd26-aaa0-808e-8007-c8a2948fe42e">
      <g class="fills" id="fills-a77efd26-aaa0-808e-8007-c8a2948fe42e">
        <rect rx="0" ry="0" x="658" y="984" transform="matrix(1.000000, 0.000000, 0.000000, 1.000000, 0.000000, 0.000000)" width="15" height="89" style="fill:#ffb38c;fill-opacity:1">
        </rect>
      </g>
    </g>
  </g>
</svg>
